<svg 
 xmlns="http://www.w3.org/2000/svg"
 xmlns:xlink="http://www.w3.org/1999/xlink"
 width="22px" height="24px">
<path fill-rule="evenodd"  fill="rgb(255, 255, 255)"
 d="M0.550,20.182 L4.400,20.182 L4.400,23.455 C4.400,23.615 4.452,23.744 4.555,23.847 C4.658,23.948 4.790,24.001 4.950,24.001 L7.821,24.001 C7.969,24.001 8.098,23.948 8.207,23.847 C8.316,23.744 8.370,23.615 8.370,23.455 L8.370,20.182 L17.050,20.182 C17.210,20.182 17.342,20.132 17.445,20.028 C17.549,19.926 17.600,19.796 17.600,19.637 L17.600,17.455 C17.600,17.296 17.549,17.166 17.445,17.063 C17.342,16.960 17.210,16.909 17.050,16.909 L8.370,16.909 L8.370,14.897 L14.214,14.897 C16.505,14.897 18.376,14.205 19.826,12.818 C21.275,11.433 22.000,9.642 22.000,7.449 C22.000,5.256 21.275,3.467 19.826,2.080 C18.376,0.694 16.505,-0.000 14.214,-0.000 L4.950,-0.000 C4.790,-0.000 4.658,0.051 4.555,0.153 C4.452,0.256 4.400,0.387 4.400,0.545 L4.400,11.267 L0.550,11.267 C0.390,11.267 0.258,11.321 0.155,11.429 C0.052,11.536 -0.000,11.665 -0.000,11.813 L-0.000,14.353 C-0.000,14.511 0.051,14.642 0.155,14.744 C0.258,14.847 0.389,14.897 0.550,14.897 L4.400,14.897 L4.400,16.909 L0.550,16.909 C0.390,16.909 0.258,16.960 0.155,17.063 C0.052,17.166 -0.000,17.295 -0.000,17.455 L-0.000,19.637 C-0.000,19.796 0.051,19.926 0.155,20.028 C0.258,20.132 0.390,20.182 0.550,20.182 ZM8.370,3.632 L13.870,3.632 C15.085,3.632 16.064,3.983 16.809,4.688 C17.554,5.392 17.926,6.313 17.926,7.450 C17.926,8.586 17.554,9.507 16.809,10.210 C16.064,10.916 15.085,11.267 13.870,11.267 L8.370,11.267 L8.370,3.632 Z"/>
</svg>